<?xml version="1.0" encoding="UTF-8" standalone="no"?>
<!-- Created with Inkscape (http://www.inkscape.org/) -->

<svg
   width="48"
   height="48"
   viewBox="0 0 12.7 12.7"
   version="1.1"
   id="svg1"
   xml:space="preserve"
   xmlns="http://www.w3.org/2000/svg"
   xmlns:svg="http://www.w3.org/2000/svg"><defs
     id="defs1" /><g
     id="layer1"><g
       id="g40"
       transform="matrix(0.163676,0,0,0.163676,-9.958448,-14.702563)"><path
         style="fill:#ffffff"
         d="m 80.936635,160.79104 c -0.72488,-0.17069 -1.14331,-0.44127 -2.12652,-1.37512 -0.59856,-0.56852 -1.31193,-1.09712 -1.98238,-1.46892 -1.90298,-1.05533 -2.30194,-1.57355 -2.62576,-3.41067 -0.6702,-3.80227 -0.8928,-6.49393 -0.69212,-8.36924 0.26702,-2.4952 0.9311,-4.47703 2.11613,-6.3152 0.97035,-1.50517 2.81907,-3.32389 4.58354,-4.50917 0.25539,-0.17157 0.38395,-0.31194 0.28568,-0.31194 -0.0983,0 -0.88446,-0.055 -1.74708,-0.12225 -2.66829,-0.20799 -5.7224,-1.06905 -7.34062,-2.06958 -0.95692,-0.59165 -2.80601,-2.36939 -3.84567,-3.69727 -1.8336,-2.34192 -3.69512,-5.66668 -3.95815,-7.06946 -0.13703,-0.73078 -0.13228,-0.76067 0.28472,-1.79263 0.50289,-1.24454 0.83251,-2.58545 0.93161,-3.78988 0.0917,-1.11427 0.31278,-1.72864 0.78756,-2.18847 0.34287,-0.33206 5.29939,-3.14886 7.43248,-4.22388 1.31689,-0.66368 2.1098,-0.81765 4.20543,-0.81663 0.99001,4.9e-4 2.1411,0.0561 2.55798,0.12363 2.12166,0.34357 4.76966,1.71806 7.35798,3.8193 l 1.00271,0.81401 -0.16841,-0.48399 c -0.76175,-2.18916 -1.07591,-5.93059 -0.67709,-8.06367 0.39665,-2.12153 1.23021,-4.10087 2.32399,-5.518495 0.28088,-0.36403 1.37482,-1.53301 2.43099,-2.59771 2.50379,-2.52404 2.695595,-2.62785 4.754965,-2.57349 2.48272,0.0655 4.32816,0.0528 5.44024,-0.0375 0.98692,-0.0802 1.11433,-0.0651 1.69085,0.19956 0.86829,0.39864 2.19354,1.49773 3.66332,3.03814 2.13853,2.241315 3.00762,3.572155 3.71063,5.682055 0.6923,2.07777 0.81674,4.63681 0.36106,7.42499 -0.15295,0.93587 -0.48911,2.30234 -0.71219,2.89504 -0.0519,0.13798 0.16121,-0.004 0.52193,-0.34799 1.78216,-1.69884 4.7225,-3.44482 6.80225,-4.03919 0.87512,-0.25011 1.19636,-0.27707 3.30165,-0.27715 2.25665,-9e-5 2.36244,0.0105 3.2651,0.32729 0.51308,0.18006 1.77248,0.78784 2.79865,1.35062 1.02617,0.56279 2.64562,1.43872 3.59876,1.94653 2.60639,1.38859 2.83175,1.64219 3.10107,3.48955 0.18043,1.23762 0.61731,2.84714 1.0623,3.9136 0.51012,1.22255 0.44607,1.71095 -0.45864,3.49757 -1.7501,3.45606 -4.21267,6.68302 -6.34322,8.31218 -1.51646,1.15959 -3.12126,1.81732 -5.7413,2.35313 -1.37838,0.28189 -4.30546,0.56903 -4.51866,0.44328 -0.0481,-0.0284 -0.0875,-0.0285 -0.0875,-3.5e-4 0,0.0282 0.35421,0.29233 0.78712,0.587 1.79582,1.22236 3.5287,3.02001 4.52874,4.69801 1.34991,2.26505 2.16968,5.80913 1.97865,8.55417 -0.1377,1.97867 -0.87067,6.75289 -1.10739,7.21304 -0.3105,0.60354 -0.73318,0.95114 -1.93083,1.58786 -1.20821,0.64233 -1.65809,0.97104 -2.82313,2.06276 -0.72447,0.67888 -0.95766,0.82335 -1.68604,1.04459 -0.78491,0.23841 -0.92894,0.24739 -2.01621,0.12573 -5.29138,-0.59209 -7.57634,-1.26087 -10.21513,-2.98983 -1.24209,-0.81382 -2.86342,-2.28781 -3.66313,-3.33023 -0.87634,-1.1423 -1.89204,-2.95453 -2.35195,-4.19639 -0.2495,-0.6737 -0.46584,-1.11219 -0.4866,-0.98628 -0.0206,0.1247 -0.17211,0.59404 -0.33677,1.04299 -1.04126,2.83898 -3.29265,5.76111 -5.636905,7.31627 -2.50987,1.66503 -4.64919,2.40043 -8.22149,2.82617 -0.83081,0.099 -1.85165,0.23089 -2.26853,0.29307 -0.89388,0.13333 -1.30066,0.13128 -1.89871,-0.01 z"
         id="path5-6" /><path
         id="path5"
         style="fill:#000000"
         d="m 80.936622,160.79104 c -0.724876,-0.17069 -1.143308,-0.44127 -2.126512,-1.37512 -0.598562,-0.56852 -1.311934,-1.09712 -1.98238,-1.46892 -1.902984,-1.05533 -2.301945,-1.57355 -2.625764,-3.41067 -0.670204,-3.80227 -0.892798,-6.49393 -0.692116,-8.36924 0.267017,-2.4952 0.931099,-4.47703 2.116128,-6.3152 0.970351,-1.50517 2.81907,-3.32389 4.583534,-4.50917 0.255398,-0.17157 0.383955,-0.31194 0.285684,-0.31194 -0.09827,0 -0.884455,-0.055 -1.747075,-0.12225 -2.668291,-0.20799 -5.722401,-1.06905 -7.340622,-2.06958 -0.956918,-0.59165 -2.806012,-2.36939 -3.845675,-3.69727 -1.833602,-2.34192 -3.695114,-5.66668 -3.958146,-7.06946 -0.137028,-0.73078 -0.13228,-0.76067 0.284714,-1.79263 0.502894,-1.24454 0.832513,-2.58545 0.931616,-3.78988 0.09168,-1.11427 0.312775,-1.72864 0.787559,-2.18847 0.342867,-0.33206 5.299387,-3.14886 7.43248,-4.22388 1.316889,-0.66368 2.109797,-0.81765 4.20543,-0.81663 0.990007,4.9e-4 2.141099,0.0561 2.557982,0.12363 2.121661,0.34357 4.769662,1.71806 7.357979,3.8193 l 1.002704,0.81401 -0.16841,-0.48399 c -0.761746,-2.18916 -1.075906,-5.93059 -0.677089,-8.06367 0.396656,-2.12152 1.230218,-4.10087 2.323994,-5.518485 0.280875,-0.36403 1.37482,-1.53301 2.430989,-2.59772 2.503787,-2.52404 2.695603,-2.62785 4.754973,-2.57349 2.482713,0.0655 4.328161,0.0528 5.440241,-0.0375 0.98692,-0.0802 1.11433,-0.0651 1.69085,0.19956 0.86829,0.39864 2.19354,1.49773 3.66332,3.03815 2.13853,2.241315 3.00762,3.572155 3.71063,5.682055 0.6923,2.07777 0.81674,4.63681 0.36106,7.42499 -0.15295,0.93587 -0.48911,2.30234 -0.71219,2.89504 -0.0519,0.13798 0.16121,-0.004 0.52193,-0.34799 1.78216,-1.69884 4.7225,-3.44482 6.80225,-4.03919 0.87512,-0.25011 1.19636,-0.27707 3.30165,-0.27715 2.25665,-9e-5 2.36244,0.0105 3.2651,0.32729 0.51308,0.18006 1.77248,0.78784 2.79865,1.35062 1.02617,0.56279 2.64562,1.43872 3.59876,1.94653 2.60639,1.38859 2.83175,1.64219 3.10107,3.48955 0.18043,1.23762 0.61731,2.84714 1.0623,3.9136 0.51012,1.22254 0.44607,1.71095 -0.45864,3.49757 -1.7501,3.45606 -4.21267,6.68302 -6.34322,8.31218 -1.51646,1.15958 -3.12126,1.81732 -5.7413,2.35313 -1.37838,0.28189 -4.30546,0.56903 -4.51866,0.44328 -0.0481,-0.0284 -0.0875,-0.0285 -0.0875,-3.5e-4 0,0.0282 0.35421,0.29233 0.78712,0.587 1.79582,1.22236 3.5287,3.02001 4.52874,4.69801 1.34991,2.26505 2.16968,5.80913 1.97865,8.55417 -0.1377,1.97867 -0.87067,6.75289 -1.10739,7.21304 -0.3105,0.60354 -0.73318,0.95114 -1.93083,1.58786 -1.20821,0.64232 -1.65809,0.97103 -2.82313,2.06276 -0.72447,0.67888 -0.95766,0.82335 -1.68604,1.04459 -0.78491,0.23841 -0.92894,0.24739 -2.01621,0.12573 -5.29138,-0.59209 -7.57634,-1.26087 -10.21513,-2.98983 -1.24209,-0.81382 -2.86342,-2.28781 -3.66313,-3.33023 -0.87634,-1.1423 -1.89204,-2.95453 -2.351954,-4.19639 -0.2495,-0.6737 -0.465842,-1.11219 -0.486604,-0.98628 -0.02056,0.1247 -0.172105,0.59404 -0.336768,1.04299 -1.041257,2.83898 -3.29265,5.76111 -5.636907,7.31627 -2.509868,1.66503 -4.649187,2.40043 -8.221493,2.82617 -0.830809,0.099 -1.851648,0.23089 -2.268531,0.29307 -0.893879,0.13333 -1.300653,0.13128 -1.898711,-0.01 z m 2.226202,-1.63136 c 3.363435,-0.3753 4.986188,-0.75392 6.912986,-1.61295 3.269253,-1.45753 5.542692,-3.78581 6.974608,-7.14286 0.381697,-0.89486 0.981745,-2.92998 1.344628,-4.56042 0.110876,-0.49817 0.467083,-0.78416 0.976697,-0.78416 0.695147,0 0.844427,0.18508 1.033797,1.2816 0.35329,2.04575 1.46489,4.8296 2.54601,6.37616 0.88827,1.27068 1.45529,1.87521 2.70361,2.88244 2.6085,2.10473 5.4163,3.10719 10.00604,3.57245 1.68164,0.17046 1.88524,0.11143 2.92059,-0.84678 0.80439,-0.74446 2.66164,-2.02973 3.6646,-2.53603 0.81442,-0.41112 0.8145,-0.41129 1.18019,-2.80032 0.13254,-0.86583 0.32041,-2.07275 0.41751,-2.68204 0.33696,-2.11455 0.0821,-5.05096 -0.61109,-7.03977 -1.0138,-2.90885 -3.63671,-5.59415 -7.54264,-7.72208 l -1.02035,-0.55588 v -0.55385 c 0,-0.3213 0.0691,-0.62294 0.16454,-0.71839 0.12777,-0.12777 0.78567,-0.18164 2.94442,-0.24111 2.26072,-0.0623 3.04121,-0.12935 4.1792,-0.35916 1.73977,-0.35133 3.61153,-0.99433 4.60612,-1.58232 1.50268,-0.88837 3.47541,-2.91505 4.74523,-4.875 1.07663,-1.66175 2.71786,-4.64176 2.71745,-4.93409 -2.2e-4,-0.15371 -0.15838,-0.66713 -0.35145,-1.14094 -0.42537,-1.04387 -0.75072,-2.29984 -0.93982,-3.62803 -0.0776,-0.54515 -0.20897,-1.10231 -0.29189,-1.23813 -0.0829,-0.13582 -1.19047,-0.8125 -2.46124,-1.50374 -1.27076,-0.69123 -2.88782,-1.58965 -3.59346,-1.99648 -1.54735,-0.89211 -2.24751,-1.15007 -3.61573,-1.33215 -1.32757,-0.17666 -2.3511,-0.0792 -3.89672,0.37104 -2.68784,0.78299 -3.46447,1.2771 -7.80951,4.96858 -1.73773,1.47636 -2.06209,1.64778 -2.75241,1.45469 -0.54801,-0.15329 -0.50505,-0.51127 0.28095,-2.3412 1.20552,-2.80663 1.64376,-4.77356 1.64023,-7.36162 -0.004,-2.85776 -0.66362,-4.8797 -2.29921,-7.04686 -0.6408,-0.84906 -3.52961,-3.721965 -4.23268,-4.209375 -0.55566,-0.38522 -0.55248,-0.385 -3.2605,-0.22607 -0.94806,0.0556 -1.907586,0.0354 -2.744706,-0.0578 -1.983281,-0.22085 -1.956936,-0.23341 -4.230771,2.01796 -2.669224,2.642875 -3.438539,3.758115 -4.155315,6.023805 -0.913208,2.8866 -0.467231,7.07988 1.176279,11.05992 0.446788,1.08197 0.526583,1.37933 0.43809,1.63255 -0.08821,0.2524 -0.191941,0.31649 -0.561402,0.34687 -0.722741,0.0594 -0.939519,-0.0482 -1.900431,-0.94376 -2.890215,-2.6936 -5.862157,-4.67479 -7.962152,-5.30781 -1.844389,-0.55596 -4.099833,-0.61483 -5.605165,-0.14628 -0.412561,0.12842 -1.274858,0.5387 -1.916216,0.91175 -0.641358,0.37304 -2.246591,1.26599 -3.567184,1.98433 -1.320593,0.71834 -2.493616,1.40832 -2.606716,1.5333 -0.132963,0.14692 -0.24143,0.54639 -0.306915,1.13032 -0.164416,1.46609 -0.456199,2.71819 -0.878069,3.76796 -0.217644,0.54159 -0.395717,1.10665 -0.395717,1.25571 0,0.4207 1.516998,3.283 2.60562,4.91633 1.705996,2.55962 3.320121,4.2118 4.946777,5.06342 2.515189,1.3168 6.52607,2.08404 9.927881,1.89912 1.327117,-0.0721 1.505373,-0.0597 1.570446,0.10991 0.111133,0.28961 0.08791,0.97672 -0.04116,1.21789 -0.06301,0.11774 -0.627115,0.48783 -1.253564,0.82243 -3.16893,1.69258 -5.860486,4.24343 -6.894663,6.53424 -0.737084,1.63271 -1.121866,3.96077 -1.036317,6.27004 0.05929,1.60052 0.767559,6.31272 1.019624,6.7837 0.06532,0.12206 0.761128,0.60337 1.546236,1.06959 0.984932,0.58488 1.680528,1.10047 2.243744,1.66312 1.363573,1.36219 1.274492,1.33233 3.30106,1.10621 z m 0.562814,-10.2607 c -0.354025,-0.27848 -0.391488,-0.63247 -0.110512,-1.04424 0.108206,-0.15858 0.727122,-0.86554 1.375368,-1.57104 0.648245,-0.70549 1.672166,-1.85994 2.275379,-2.56543 2.262801,-2.64648 3.670368,-4.14898 3.953376,-4.22001 0.371008,-0.0931 0.842727,0.17241 1.041726,0.58638 0.204861,0.42616 0.25765,0.35531 -2.386993,3.20388 -1.209621,1.3029 -2.613897,2.82467 -3.120614,3.38171 -0.506716,0.55704 -1.220399,1.34077 -1.585962,1.74162 -0.721766,0.79143 -0.95481,0.87017 -1.441768,0.48713 z m 28.332762,-3.1677 c -4.44454,-4.60918 -4.85146,-5.0706 -4.85146,-5.50122 0,-0.48566 0.40983,-0.83683 0.84822,-0.72681 0.2634,0.0661 2.10762,1.9529 4.77824,4.88855 1.17996,1.29706 1.37017,1.56068 1.37017,1.89899 0,0.26905 -0.0711,0.43088 -0.22555,0.51356 -0.51487,0.27554 -0.74118,0.14904 -1.91962,-1.07307 z m -19.134041,0.81684 c -0.564788,-0.3277 -0.78722,-0.71747 -0.710288,-1.24466 0.06822,-0.46747 0.556232,-1.02044 0.986837,-1.11819 0.284854,-0.0647 0.375357,-0.28538 1.416929,-3.45571 l 1.112639,-3.38663 -0.471281,-0.24008 c -0.259204,-0.13204 -0.896995,-0.57229 -1.417312,-0.97833 l -0.946031,-0.73826 -1.774104,1.13413 c -0.975756,0.62377 -2.26859,1.44278 -2.872964,1.82001 -1.042039,0.65042 -1.098861,0.70666 -1.098861,1.08762 0,0.63054 -0.522374,1.08419 -1.244593,1.08087 -0.899407,-0.004 -1.320839,-0.47807 -1.320839,-1.48535 0,-0.46223 0.057,-0.62394 0.300584,-0.85278 0.255903,-0.24041 0.416239,-0.28244 1.078647,-0.28279 l 0.778064,-4e-4 2.040685,-1.29037 c 1.122376,-0.7097 2.395433,-1.48653 2.829016,-1.7263 l 0.788331,-0.43594 -0.334643,-0.48921 c -0.184054,-0.26906 -0.420681,-0.65704 -0.525837,-0.86217 -0.171929,-0.33538 -0.223519,-0.36239 -0.511994,-0.26807 -0.176439,0.0577 -0.536753,0.16004 -0.800696,0.22746 -0.263944,0.0674 -0.677839,0.27989 -0.919767,0.47215 -0.537504,0.42715 -1.213149,0.47709 -1.573905,0.11634 -0.338926,-0.33893 -0.313044,-1.04592 0.05274,-1.44061 0.338072,-0.36478 0.189684,-0.3317 1.643762,-0.36649 1.742101,-0.0417 1.669847,0.0137 1.455568,-1.11471 l -0.178498,-0.93994 -3.20679,0.0694 c -4.218361,0.0913 -4.333311,0.10434 -4.646613,0.5281 -0.34448,0.46594 -0.8912,0.55441 -1.57014,0.25408 -0.608543,-0.26919 -0.720284,-0.44025 -0.824936,-1.2629 -0.07191,-0.56526 -0.05616,-0.61679 0.273108,-0.89386 0.508043,-0.42749 0.946781,-0.49016 1.490306,-0.21287 0.249996,0.12754 0.526436,0.31852 0.614311,0.4244 0.144872,0.17456 0.484428,0.18476 3.641254,0.10939 1.914816,-0.0457 3.649787,-0.11735 3.855492,-0.15918 0.35926,-0.0731 0.384241,-0.11602 0.633533,-1.08973 0.142738,-0.55753 0.42463,-1.34076 0.626425,-1.74051 l 0.366901,-0.72683 -0.273919,-0.17922 c -0.150655,-0.0986 -0.931057,-0.66326 -1.734226,-1.25486 -3.07684,-2.26634 -3.789732,-2.71421 -4.320312,-2.71421 -0.398041,0 -0.558952,-0.0722 -0.883193,-0.39648 -0.3249,-0.3249 -0.396476,-0.4848 -0.396476,-0.88574 0,-0.90262 0.496663,-1.39982 1.398311,-1.39982 0.671159,0 1.056999,0.37786 1.135112,1.11164 0.03391,0.31857 0.146818,0.67774 0.250902,0.79816 0.19121,0.22124 2.923793,2.19676 4.593696,3.32102 l 0.906135,0.61005 0.626215,-0.5521 0.626214,-0.55211 -0.424549,-0.5123 c -0.233503,-0.28176 -0.649334,-0.64513 -0.92407,-0.80747 -0.274736,-0.16234 -0.577457,-0.44589 -0.672714,-0.63009 -0.151312,-0.29261 -0.152063,-0.3855 -0.0059,-0.7352 0.09199,-0.22016 0.273189,-0.45698 0.402674,-0.52628 0.706113,-0.3779 1.608729,0.12843 1.502709,0.84296 -0.04153,0.27989 0.02698,0.48762 0.276536,0.83851 0.671658,0.94437 0.562143,0.90154 1.323366,0.51757 0.373632,-0.18846 0.750648,-0.34266 0.837814,-0.34266 0.228541,0 0.21135,-0.0788 -0.348563,-1.5979 -0.278875,-0.75662 -0.754798,-2.11213 -1.057608,-3.01225 -0.546874,-1.62562 -0.553809,-1.63815 -1.034898,-1.87002 -0.358153,-0.17261 -0.512537,-0.33176 -0.592586,-0.61088 -0.147369,-0.51384 0.06316,-1.16824 0.515149,-1.60128 0.290345,-0.27816 0.462101,-0.34499 0.886747,-0.34499 0.447497,0 0.5778,0.0572 0.866923,0.38083 0.285236,0.31923 0.339846,0.47953 0.337673,0.99119 -0.0018,0.42562 -0.07161,0.6986 -0.230628,0.90189 -0.12542,0.16034 -0.229202,0.34934 -0.230628,0.41999 -0.0014,0.0707 0.358771,1.09391 0.800439,2.27391 0.441669,1.17999 0.896587,2.44495 1.01093,2.81101 l 0.207896,0.66558 0.534161,-0.0825 c 0.703872,-0.10874 2.248909,-0.10514 2.997149,0.007 l 0.59723,0.0895 0.0733,-0.36672 c 0.0403,-0.20169 0.49311,-1.547 1.00616,-2.98958 0.51306,-1.44257 0.93116,-2.7084 0.92912,-2.81295 -0.002,-0.10455 -0.0807,-0.29195 -0.17491,-0.41644 -0.0942,-0.1245 -0.17121,-0.45771 -0.17121,-0.74048 0,-0.4292 0.0655,-0.5796 0.39648,-0.9106 0.26585,-0.26585 0.50596,-0.39633 0.72881,-0.39604 0.77217,0.001 1.76617,1.06078 1.61984,1.72701 -0.0849,0.38672 -0.44565,0.76861 -0.88212,0.93391 -0.20925,0.0793 -0.34969,0.27526 -0.48599,0.67828 -0.10543,0.31175 -0.58507,1.72127 -1.06587,3.13225 -0.48081,1.41099 -0.86557,2.56954 -0.85504,2.57457 0.0105,0.005 0.40682,0.22955 0.88064,0.49895 0.47383,0.26941 0.87939,0.47194 0.90126,0.45008 0.0219,-0.0219 0.24694,-0.36032 0.50017,-0.75211 0.30321,-0.46912 0.43894,-0.7945 0.39751,-0.95293 -0.17875,-0.6835 0.36732,-1.25862 1.06989,-1.12681 0.44668,0.0838 0.99241,0.7331 0.99241,1.18077 0,0.29668 -0.41189,0.70319 -0.8796,0.86811 -0.22254,0.0785 -0.49916,0.35842 -0.78009,0.78947 l -0.43527,0.66788 0.61019,0.60367 0.61019,0.60367 0.34983,-0.21896 c 0.53165,-0.33276 2.52929,-1.8426 3.95976,-2.99284 l 1.27771,-1.02741 0.008,-0.56685 c 0.007,-0.46909 0.064,-0.61474 0.33122,-0.84459 0.6091,-0.52392 1.21683,-0.50945 1.83587,0.0437 0.94916,0.84815 0.22869,2.52248 -0.99966,2.32314 -0.33468,-0.0543 -0.57886,0.0951 -2.40995,1.47446 -2.58599,1.94804 -3.59159,2.77837 -3.59356,2.96724 -8.6e-4,0.0823 0.13306,0.4153 0.2976,0.74 0.16453,0.3247 0.40079,0.98775 0.52501,1.47346 0.12423,0.48571 0.24655,0.90379 0.27184,0.92908 0.0871,0.0871 3.51391,0.2581 5.23695,0.26127 l 1.72684,0.003 0.44703,-0.35925 c 1.05205,-0.84544 2.45456,-0.36196 2.45456,0.84615 0,0.87878 -0.48413,1.37886 -1.33489,1.37886 -0.3046,0 -0.52892,-0.10311 -0.85122,-0.39129 l -0.43763,-0.39129 -3.70238,-0.069 -3.70239,-0.069 -6.5e-4,0.43113 c -3.5e-4,0.23712 -0.057,0.6342 -0.12595,0.8824 -0.0871,0.31384 -0.0882,0.48839 -0.003,0.57314 0.0723,0.0723 0.70417,0.11909 1.55443,0.11503 1.29137,-0.006 1.45841,0.0169 1.69493,0.2343 0.19448,0.17876 0.26237,0.37167 0.26237,0.74558 0,0.95755 -0.80092,1.28437 -1.54548,0.63064 -0.281,-0.24672 -0.59457,-0.37596 -1.14101,-0.47027 -0.41444,-0.0715 -0.89783,-0.15873 -1.0742,-0.19379 -0.22918,-0.0456 -0.32068,-0.0165 -0.32068,0.10181 0,0.091 -0.16365,0.49305 -0.36367,0.89333 -0.20319,0.40661 -0.31897,0.77075 -0.26237,0.82518 0.0557,0.0536 1.33262,0.81019 2.83757,1.68137 2.66367,1.54192 2.75439,1.58396 3.41853,1.58396 1.06471,0 1.47319,0.30914 1.47948,1.11971 0.006,0.81099 -0.66099,1.55694 -1.39562,1.56018 -0.68465,0.003 -1.36847,-0.74101 -1.2501,-1.36018 0.0268,-0.14033 0.0173,-0.30228 -0.0211,-0.35989 -0.0917,-0.13753 -2.73738,-1.668 -4.47099,-2.58638 l -1.36927,-0.72537 -0.45429,0.38884 c -0.39527,0.33832 -1.74245,1.19823 -2.02453,1.29225 -0.0542,0.0181 0.0313,0.37815 0.19015,0.80014 0.15884,0.42199 0.58347,1.75933 0.94363,2.97186 0.89526,3.01402 0.94352,3.13086 1.3734,3.32454 0.72861,0.32828 1.03947,1.22065 0.66741,1.91586 -0.46214,0.86351 -1.92828,0.82764 -2.38646,-0.0584 -0.22423,-0.4336 -0.22232,-0.63081 0.0109,-1.12225 0.10591,-0.22317 0.16495,-0.56134 0.13542,-0.77559 -0.0806,-0.58446 -1.92113,-6.27297 -2.08159,-6.43342 -0.033,-0.033 -0.3151,0.0168 -0.62694,0.11068 -0.31184,0.0939 -0.79479,0.17064 -1.0732,0.17064 h -0.50622 v 1.2306 c 0,1.12049 0.0261,1.26898 0.29153,1.65961 0.37226,0.54783 0.36921,0.96433 -0.0104,1.41543 -0.42735,0.50788 -1.06786,0.50788 -1.495207,0 -0.341139,-0.40542 -0.381554,-0.82674 -0.126258,-1.31625 0.187587,-0.35968 0.218071,-1.01948 0.09951,-2.1538 -0.07459,-0.71365 -0.07522,-0.71464 -0.495595,-0.77839 -0.2315,-0.0351 -0.703162,-0.12009 -1.048138,-0.18885 -0.503361,-0.10033 -0.647187,-0.0939 -0.728289,0.0325 -0.05558,0.0866 -0.565941,1.56308 -1.134129,3.28102 l -1.033069,3.12354 0.216268,0.40351 c 0.703127,1.31188 -0.537846,2.52178 -1.822202,1.77657 z m 8.329381,-9.83223 c 1.36998,-0.49418 2.71868,-1.16672 3.22708,-1.60921 0.81603,-0.71023 1.51276,-1.86821 2.03832,-3.38772 0.60644,-1.75338 0.6494,-2.8415 0.17078,-4.32617 -0.50104,-1.55423 -1.11617,-2.42803 -2.39974,-3.40891 -2.42399,-1.85237 -4.14803,-2.28592 -6.327745,-1.59127 -1.578548,0.50307 -2.412933,0.87412 -2.983707,1.32687 -0.990091,0.78535 -1.931308,1.90351 -2.410585,2.86375 l -0.462271,0.92617 0.01397,1.51594 c 0.02842,3.08271 0.740482,4.64526 2.943267,6.45867 1.647354,1.35617 4.353324,1.89463 6.190621,1.23188 z m -2.532754,-2.06178 c -0.518717,-0.24999 -0.424291,-1.18295 0.158367,-1.56472 0.739604,-0.48461 1.380677,0.91051 0.673868,1.46649 -0.343057,0.26985 -0.449955,0.28247 -0.832235,0.0982 z m -2.9997,-1.06987 c -0.328252,-0.32825 -0.318999,-0.63242 0.03138,-1.03143 0.393631,-0.44827 1.425766,-0.0988 1.425766,0.48268 0,0.33603 -0.365695,0.70368 -0.779391,0.78356 -0.301003,0.0581 -0.429252,0.0137 -0.677753,-0.23481 z m 5.663584,-0.26003 c -0.26785,-0.34052 -0.26793,-0.34086 -0.16696,-0.71776 0.0759,-0.28354 0.58308,-0.60754 0.95091,-0.60754 0.58552,0 0.84911,1.09985 0.34775,1.45102 -0.39761,0.2785 -0.85358,0.22785 -1.1317,-0.12572 z m -7.263562,-2.22903 c -0.534685,-0.61298 -0.525133,-1.08556 0.02772,-1.37145 0.725399,-0.37512 1.210277,-0.1306 1.210277,0.61034 0,0.30543 -0.08332,0.48402 -0.321351,0.68876 -0.381709,0.32833 -0.673282,0.35135 -0.916647,0.0724 z m 9.703922,-0.26237 c -0.38408,-0.38409 -0.29783,-0.88851 0.19641,-1.14865 0.3756,-0.1977 0.7067,-0.16385 0.9697,0.0992 0.32544,0.32544 0.29521,0.75059 -0.074,1.04103 -0.38786,0.30509 -0.79231,0.30823 -1.09208,0.008 z m -7.036863,-0.44648 c -0.106144,-0.11728 -0.192989,-0.31804 -0.192989,-0.44611 0,-0.30515 0.47006,-0.73996 0.799937,-0.73996 0.317403,0 0.83261,0.49063 0.83261,0.7929 0,0.5515 -1.039371,0.83538 -1.439558,0.39317 z m 3.323473,-0.66474 c -0.298332,-0.37927 -0.315197,-0.61153 -0.0698,-0.96183 0.23719,-0.33863 1.08414,-0.36692 1.37464,-0.0459 0.41151,0.45471 0.0617,1.14635 -0.63709,1.25975 -0.3567,0.0579 -0.45234,0.0218 -0.66771,-0.252 z m -5.096005,-2.67333 c -0.330919,-0.33092 -0.360518,-0.60531 -0.104698,-0.97054 0.265637,-0.37925 0.892808,-0.35431 1.209335,0.0481 0.31313,0.39808 0.304672,0.57325 -0.04454,0.92246 -0.363197,0.3632 -0.6969,0.3632 -1.060096,0 z m 7.106845,0.003 c -0.59556,-0.25927 -0.69332,-0.84087 -0.20579,-1.22435 0.63055,-0.496 1.20868,-0.1516 1.20868,0.72003 0,0.36864 -0.0504,0.46255 -0.29912,0.5571 -0.16451,0.0625 -0.30882,0.11167 -0.32068,0.10916 -0.0118,-0.003 -0.18425,-0.0754 -0.38309,-0.16194 z m -3.544923,-1.34943 c -0.345792,-0.34579 -0.301023,-0.88302 0.107641,-1.29169 0.391639,-0.39163 0.599314,-0.42506 0.849814,-0.13679 0.284739,0.32768 0.348998,0.81111 0.157132,1.18214 -0.273204,0.52831 -0.731354,0.62957 -1.114587,0.24634 z m 13.441693,0.60724 c -0.30283,-0.0463 -0.73114,-0.5441 -0.73114,-0.84968 0,-0.53144 0.47811,-0.79807 3.14848,-1.75583 4.14342,-1.48607 8.71803,-3.01598 9.01814,-3.01598 0.39791,0 0.68424,0.37004 0.63959,0.8266 -0.0325,0.33209 -0.10589,0.40889 -0.5621,0.58812 -3.36481,1.32185 -10.25834,3.94557 -10.78648,4.1054 -0.25654,0.0776 -0.58346,0.12325 -0.72649,0.10137 z m -27.376654,-0.73522 c -1.747114,-0.64815 -3.095364,-1.15686 -7.690882,-2.90189 -1.023196,-0.38853 -1.901344,-0.77094 -1.951442,-0.84981 -0.155815,-0.24528 -0.103509,-0.87584 0.08859,-1.06794 0.100784,-0.10078 0.319022,-0.18324 0.484971,-0.18324 0.462133,0 10.117659,3.34615 11.14322,3.86172 0.763212,0.38368 0.899113,0.54828 0.899113,1.08898 0,0.98105 -0.448536,0.98892 -2.973569,0.0522 z m 14.407907,-8.84453 c -0.124694,-0.12469 -0.256562,-0.40018 -0.293039,-0.6122 -0.03648,-0.21202 -0.05252,-2.73839 -0.03566,-5.61415 l 0.03067,-5.22866 0.275292,-0.22288 c 0.361233,-0.29247 0.772868,-0.28253 1.081504,0.0261 0.24895,0.24895 0.24899,0.25022 0.19067,5.76866 -0.0516,4.88043 -0.0807,5.55383 -0.25169,5.81475 -0.234674,0.35815 -0.67761,0.38851 -0.997746,0.0684 z" /></g></g></svg>
